<?xml version="1.0" encoding="UTF-8" standalone="no"?>
<svg
   xmlns:dc="http://purl.org/dc/elements/1.1/"
   xmlns:cc="http://creativecommons.org/ns#"
   xmlns:rdf="http://www.w3.org/1999/02/22-rdf-syntax-ns#"
   xmlns:svg="http://www.w3.org/2000/svg"
   xmlns="http://www.w3.org/2000/svg"
   xmlns:sodipodi="http://sodipodi.sourceforge.net/DTD/sodipodi-0.dtd"
   xmlns:inkscape="http://www.inkscape.org/namespaces/inkscape"
   width="210mm"
   height="297mm"
   viewBox="0 0 210 297"
   version="1.1"
   id="svg8"
   inkscape:version="1.0.2 (e86c870879, 2021-01-15, custom)"
   sodipodi:docname="allvectorgraphics.svg">
  <defs
     id="defs2" />
  <sodipodi:namedview
     id="base"
     pagecolor="#ffffff"
     bordercolor="#666666"
     borderopacity="1.0"
     inkscape:pageopacity="0.0"
     inkscape:pageshadow="2"
     inkscape:zoom="0.7"
     inkscape:cx="1117.1709"
     inkscape:cy="1362.6858"
     inkscape:document-units="mm"
     inkscape:current-layer="layer1"
     inkscape:document-rotation="0"
     showgrid="false"
     inkscape:window-width="1920"
     inkscape:window-height="1017"
     inkscape:window-x="-8"
     inkscape:window-y="-8"
     inkscape:window-maximized="1" />
  <metadata
     id="metadata5">
    <rdf:RDF>
      <cc:Work
         rdf:about="">
        <dc:format>image/svg+xml</dc:format>
        <dc:type
           rdf:resource="http://purl.org/dc/dcmitype/StillImage" />
        <dc:title></dc:title>
      </cc:Work>
    </rdf:RDF>
  </metadata>
  <g
     inkscape:label="Layer 1"
     inkscape:groupmode="layer"
     id="layer1">
    <rect
       style="fill:#e77664;stroke-width:0.264583;stroke-linecap:round;stroke-linejoin:round"
       id="rect833"
       width="548.06543"
       height="489.10117"
       x="-150.03362"
       y="-89.423798"
       ry="25.704298" />
    <path
       id="path835"
       style="fill:#ffffff;fill-opacity:1;stroke:none;stroke-width:2.11667;stroke-linecap:round;stroke-linejoin:round;stroke-miterlimit:4;stroke-dasharray:none;stroke-opacity:1"
       d="m -39.309598,186.64464 a 67.73333,67.73333 0 0 0 -67.733332,67.73333 67.73333,67.73333 0 0 0 67.733332,67.73334 67.73333,67.73333 0 0 0 67.733332,-67.73334 67.73333,67.73333 0 0 0 -67.733332,-67.73333 z m 0,16.93334 a 50.799999,50.799999 0 0 1 50.799999,50.79999 50.799999,50.799999 0 0 1 -50.799999,50.8 50.799999,50.799999 0 0 1 -50.8,-50.8 50.799999,50.799999 0 0 1 50.8,-50.79999 z"
       inkscape:export-filename="C:\Repos\official github\Cyclops-VR\CyclopsVR\Assets\Graphics\Reticle.png"
       inkscape:export-xdpi="133.91"
       inkscape:export-ydpi="133.91" />
    <circle
       style="fill:#ffffff;fill-opacity:1;stroke:none;stroke-width:2.11667;stroke-linecap:round;stroke-linejoin:round;stroke-miterlimit:4;stroke-dasharray:none;stroke-opacity:1"
       id="path852"
       cx="296.71133"
       cy="58.586311"
       r="67.73333"
       inkscape:export-filename="C:\Repos\official github\Cyclops-VR\CyclopsVR\Assets\Graphics\ReticleFilled.png"
       inkscape:export-xdpi="133.91"
       inkscape:export-ydpi="133.91" />
    <rect
       style="fill:#ffffff;stroke-width:2.11667;stroke-linecap:round;stroke-linejoin:round;stroke:#000000;stroke-opacity:1"
       id="rect841"
       width="135.46666"
       height="135.46666"
       x="-72.571426"
       y="-21.166666"
       ry="25.704298"
       inkscape:export-filename="C:\Repos\official github\Cyclops-VR\CyclopsVR\Assets\Graphics\Background.png"
       inkscape:export-xdpi="133.91"
       inkscape:export-ydpi="133.91" />
    <rect
       style="fill:#ffffff;stroke-width:2.11667;stroke-linecap:round;stroke-linejoin:round;stroke:#000000;stroke-opacity:1"
       id="rect843"
       width="135.46666"
       height="135.46666"
       x="-72.571426"
       y="-21.166666"
       ry="25.704298"
       inkscape:export-filename="C:\Repos\official github\Cyclops-VR\CyclopsVR\Assets\Graphics\Background.png"
       inkscape:export-xdpi="133.91"
       inkscape:export-ydpi="133.91" />
    <rect
       style="fill:#ffffff;stroke:#000000;stroke-width:2.11667;stroke-linecap:round;stroke-linejoin:round;stroke-opacity:1"
       id="rect845"
       width="135.46666"
       height="135.46666"
       x="-167.8215"
       y="-188.15654"
       ry="4.178647"
       inkscape:export-filename="C:\Repos\official github\Cyclops-VR\CyclopsVR\Assets\Graphics\Background02.png"
       inkscape:export-xdpi="133.91"
       inkscape:export-ydpi="133.91" />
    <path
       id="path847"
       style="fill:#ffffff;fill-opacity:1;stroke:none;stroke-width:2.11667;stroke-linecap:round;stroke-linejoin:round;stroke-miterlimit:4;stroke-dasharray:none;stroke-opacity:1"
       d="m 269.87493,185.13274 a 67.73333,67.73333 0 0 0 -67.73334,67.73333 67.73333,67.73333 0 0 0 67.73334,67.73334 67.73333,67.73333 0 0 0 67.73333,-67.73334 67.73333,67.73333 0 0 0 -67.73333,-67.73333 z m 0,16.93334 a 50.799999,50.799999 0 0 1 50.79999,50.79999 50.799999,50.799999 0 0 1 -50.79999,50.8 50.799999,50.799999 0 0 1 -50.8,-50.8 50.799999,50.799999 0 0 1 50.8,-50.79999 z"
       inkscape:export-filename="C:\Repos\official github\Cyclops-VR\CyclopsVR\Assets\Graphics\Reticle.png"
       inkscape:export-xdpi="133.91"
       inkscape:export-ydpi="133.91" />
    <path
       id="rect849"
       style="fill:#ffffff;stroke:none;stroke-width:8.00001;stroke-linecap:round;stroke-linejoin:round;stroke-opacity:1"
       d="M 938.57031 835 L 938.57031 1076.4277 L 1101.4277 1076.4277 L 1101.4277 835 L 938.57031 835 z M 966.23047 942.91797 A 12.796308 12.796308 0 0 1 966.25977 942.91797 A 12.796308 12.796308 0 0 1 979.05664 955.71484 A 12.796308 12.796308 0 0 1 966.25977 968.51172 A 12.796308 12.796308 0 0 1 953.46289 955.71484 A 12.796308 12.796308 0 0 1 966.23047 942.91797 z M 966.26172 949.70312 A 6.0103824 6.0103824 0 0 0 960.25 955.71484 A 6.0103824 6.0103824 0 0 0 966.26172 961.72461 A 6.0103824 6.0103824 0 0 0 972.27148 955.71484 A 6.0103824 6.0103824 0 0 0 966.26172 949.70312 z "
       transform="scale(0.26458333)"
       inkscape:export-filename="C:\Repos\official github\Cyclops-VR\CyclopsVR\Assets\Graphics\Icon_Door.png"
       inkscape:export-xdpi="133.91"
       inkscape:export-ydpi="133.91" />
    <circle
       style="fill:#090909;fill-opacity:1;stroke:none;stroke-width:0.155915;stroke-linecap:round;stroke-linejoin:round;stroke-miterlimit:4;stroke-dasharray:none;stroke-opacity:1"
       id="circle855"
       cx="120.95241"
       cy="203.72916"
       r="4.9892821"
       inkscape:export-filename="C:\Repos\official github\Cyclops-VR\CyclopsVR\Assets\Graphics\ReticleFilled.png"
       inkscape:export-xdpi="133.91"
       inkscape:export-ydpi="133.91" />
    <circle
       style="fill:#aaaaaa;fill-opacity:1;stroke:none;stroke-width:0.0732327;stroke-linecap:round;stroke-linejoin:round;stroke-miterlimit:4;stroke-dasharray:none;stroke-opacity:1"
       id="circle857"
       cx="120.95241"
       cy="203.72916"
       r="2.3434489"
       inkscape:export-filename="C:\Repos\official github\Cyclops-VR\CyclopsVR\Assets\Graphics\ReticleFilled.png"
       inkscape:export-xdpi="133.91"
       inkscape:export-ydpi="133.91" />
    <path
       id="circle863"
       style="fill:#090909;fill-opacity:1;stroke:none;stroke-width:0.155915;stroke-linecap:round;stroke-linejoin:round;stroke-miterlimit:4;stroke-dasharray:none;stroke-opacity:1"
       d="m 122.54465,228.07255 a 4.989282,4.989282 0 0 0 -4.97799,4.98936 4.989282,4.989282 0 0 0 4.98936,4.98935 4.989282,4.989282 0 0 0 4.98936,-4.98935 4.989282,4.989282 0 0 0 -4.98936,-4.98936 4.989282,4.989282 0 0 0 -0.0114,0 z m 0.0114,2.64583 a 2.3434488,2.3434488 0 0 1 2.34353,2.34353 2.3434488,2.3434488 0 0 1 -2.34353,2.34352 2.3434488,2.3434488 0 0 1 -2.34353,-2.34352 2.3434488,2.3434488 0 0 1 2.34353,-2.34353 z" />
    <path
       id="path871"
       style="fill:#ffffff;fill-opacity:1;stroke:none;stroke-width:2.11667;stroke-linecap:round;stroke-linejoin:round;stroke-miterlimit:4;stroke-dasharray:none;stroke-opacity:1"
       d="m 116.50857,254.26383 a 67.73333,67.73333 0 0 0 -67.73333,67.73332 67.73333,67.73333 0 0 0 67.73333,67.73334 67.73333,67.73333 0 0 0 67.73333,-67.73334 67.73333,67.73333 0 0 0 -67.73333,-67.73332 z m 0,16.93333 a 50.799999,50.799999 0 0 1 50.8,50.79999 50.799999,50.799999 0 0 1 -50.8,50.8 50.799999,50.799999 0 0 1 -50.799998,-50.8 50.799999,50.799999 0 0 1 50.799998,-50.79999 z"
       inkscape:export-filename="C:\Repos\official github\Cyclops-VR\CyclopsVR\Assets\Graphics\Reticle.png"
       inkscape:export-xdpi="133.91"
       inkscape:export-ydpi="133.91" />
    <path
       id="path873"
       style="fill:#a7a7a7;fill-opacity:1;stroke:none;stroke-width:2.72639;stroke-linecap:round;stroke-linejoin:round;stroke-miterlimit:4;stroke-dasharray:none;stroke-opacity:1"
       d="m 116.50859,234.75315 a 87.244005,87.244005 0 0 0 -87.244029,87.24402 87.244005,87.244005 0 0 0 87.244029,87.244 87.244005,87.244005 0 0 0 87.24399,-87.244 87.244005,87.244005 0 0 0 -87.24399,-87.24402 z m 0,21.81101 a 65.433004,65.433004 0 0 1 65.43299,65.43301 65.433004,65.433004 0 0 1 -65.43299,65.43298 65.433004,65.433004 0 0 1 -65.433029,-65.43298 65.433004,65.433004 0 0 1 65.433029,-65.43301 z"
       inkscape:export-filename="C:\Repos\official github\Cyclops-VR\CyclopsVR\Assets\Graphics\Reticle.png"
       inkscape:export-xdpi="133.91"
       inkscape:export-ydpi="133.91" />
    <path
       id="path877"
       style="fill:#999999;fill-opacity:1;stroke:none;stroke-width:2.11667;stroke-linecap:round;stroke-linejoin:round;stroke-miterlimit:4;stroke-dasharray:none;stroke-opacity:1"
       d="m 145.64092,52.637821 a 65.433003,65.433003 0 0 0 -65.433217,65.432699 65.433003,65.433003 0 0 0 65.433217,65.43322 65.433003,65.433003 0 0 0 65.43269,-65.43322 65.433003,65.433003 0 0 0 -65.43269,-65.432699 z m 0,14.6327 a 50.799999,50.799999 0 0 1 50.8,50.799999 50.799999,50.799999 0 0 1 -50.8,50.8 50.799999,50.799999 0 0 1 -50.800006,-50.8 50.799999,50.799999 0 0 1 50.800006,-50.799999 z" />
    <path
       id="path882"
       style="fill:#ffffff;fill-opacity:1;stroke:none;stroke-width:1.63224;stroke-linecap:round;stroke-linejoin:round;stroke-miterlimit:4;stroke-dasharray:none;stroke-opacity:1"
       d="m 145.64092,67.270521 a 52.231698,52.231698 0 0 0 -52.231702,52.231699 52.231698,52.231698 0 0 0 52.231702,52.2317 52.231698,52.231698 0 0 0 52.2317,-52.2317 52.231698,52.231698 0 0 0 -52.2317,-52.231699 z m 0,13.05793 a 39.173775,39.173775 0 0 1 39.17377,39.173769 39.173775,39.173775 0 0 1 -39.17377,39.17377 39.173775,39.173775 0 0 1 -39.17378,-39.17377 39.173775,39.173775 0 0 1 39.17378,-39.173769 z"
       inkscape:export-filename="C:\Repos\official github\Cyclops-VR\CyclopsVR\Assets\Graphics\Reticle.png"
       inkscape:export-xdpi="133.91"
       inkscape:export-ydpi="133.91" />
    <path
       id="path884"
       style="fill:#ffffff;fill-opacity:1;stroke:none;stroke-width:2.11667;stroke-linecap:round;stroke-linejoin:round;stroke-miterlimit:4;stroke-dasharray:none;stroke-opacity:1"
       d="m -53.294717,307.92732 a 65.433003,65.433003 0 0 0 -65.433223,65.4327 65.433003,65.433003 0 0 0 65.433223,65.43321 65.433003,65.433003 0 0 0 65.4327,-65.43321 65.433003,65.433003 0 0 0 -65.4327,-65.4327 z m 0,13.20126 a 52.231697,52.231697 0 0 1 52.2314199,52.23144 52.231697,52.231697 0 0 1 -52.2314199,52.23195 52.231697,52.231697 0 0 1 -52.231943,-52.23195 52.231697,52.231697 0 0 1 52.231943,-52.23144 z"
       inkscape:export-filename="C:\Repos\official github\Cyclops-VR\CyclopsVR\Assets\Graphics\ReticleInsideFill.png"
       inkscape:export-xdpi="133.91"
       inkscape:export-ydpi="133.91" />
    <g
       id="g889"
       transform="rotate(-10.013641,938.31327,581.98236)"
       inkscape:export-filename="C:\Repos\official github\Cyclops-VR\CyclopsVR\Assets\Graphics\Icon_Steps.png"
       inkscape:export-xdpi="133.91"
       inkscape:export-ydpi="133.91">
      <path
         id="path854"
         style="color:#000000;font-style:normal;font-variant:normal;font-weight:normal;font-stretch:normal;font-size:medium;line-height:normal;font-family:sans-serif;font-variant-ligatures:normal;font-variant-position:normal;font-variant-caps:normal;font-variant-numeric:normal;font-variant-alternates:normal;font-variant-east-asian:normal;font-feature-settings:normal;font-variation-settings:normal;text-indent:0;text-align:start;text-decoration:none;text-decoration-line:none;text-decoration-style:solid;text-decoration-color:#000000;letter-spacing:normal;word-spacing:normal;text-transform:none;writing-mode:lr-tb;direction:ltr;text-orientation:mixed;dominant-baseline:auto;baseline-shift:baseline;text-anchor:start;white-space:normal;shape-padding:0;shape-margin:0;inline-size:0;clip-rule:nonzero;display:inline;overflow:visible;visibility:visible;opacity:1;isolation:auto;mix-blend-mode:normal;color-interpolation:sRGB;color-interpolation-filters:linearRGB;solid-color:#000000;solid-opacity:1;vector-effect:none;fill:#ffffff;fill-opacity:1;fill-rule:nonzero;stroke:none;stroke-width:8.00001;stroke-linecap:round;stroke-linejoin:round;stroke-miterlimit:4;stroke-dasharray:none;stroke-dashoffset:0;stroke-opacity:1;color-rendering:auto;image-rendering:auto;shape-rendering:auto;text-rendering:auto;enable-background:accumulate;stop-color:#000000;stop-opacity:1"
         d="m 1402.8574,814.28516 c -18.9354,0 -34.791,26.08665 -34.791,69.48046 0,20.31701 3.8783,45.22153 7.0957,61.94336 0.182,0.94588 0.386,1.84596 0.5977,2.72461 l 54.3613,-4.44921 c 6.4984,-14.96322 14.7839,-27.00034 16.2008,-49.65084 1.0795,-17.25661 0.094,-47.13215 -4.0355,-60.10803 -6.235,-19.58993 -28.0384,-19.94035 -39.429,-19.94035 z m 15.4903,148.90625 -33.0411,2.70507 c 5.4683,4.6336 11.9916,5.53125 17.5508,5.53125 5.3525,0 10.6185,-2.93594 15.4903,-8.23632 z"
         transform="scale(0.26458333)"
         sodipodi:nodetypes="sssccsssccsc" />
      <path
         id="path856"
         style="color:#000000;font-style:normal;font-variant:normal;font-weight:normal;font-stretch:normal;font-size:medium;line-height:normal;font-family:sans-serif;font-variant-ligatures:normal;font-variant-position:normal;font-variant-caps:normal;font-variant-numeric:normal;font-variant-alternates:normal;font-variant-east-asian:normal;font-feature-settings:normal;font-variation-settings:normal;text-indent:0;text-align:start;text-decoration:none;text-decoration-line:none;text-decoration-style:solid;text-decoration-color:#000000;letter-spacing:normal;word-spacing:normal;text-transform:none;writing-mode:lr-tb;direction:ltr;text-orientation:mixed;dominant-baseline:auto;baseline-shift:baseline;text-anchor:start;white-space:normal;shape-padding:0;shape-margin:0;inline-size:0;clip-rule:nonzero;display:inline;overflow:visible;visibility:visible;opacity:1;isolation:auto;mix-blend-mode:normal;color-interpolation:sRGB;color-interpolation-filters:linearRGB;solid-color:#000000;solid-opacity:1;vector-effect:none;fill:#ffffff;fill-opacity:1;fill-rule:nonzero;stroke:none;stroke-width:9.59728;stroke-linecap:round;stroke-linejoin:round;stroke-miterlimit:4;stroke-dasharray:none;stroke-dashoffset:0;stroke-opacity:1;color-rendering:auto;image-rendering:auto;shape-rendering:auto;text-rendering:auto;enable-background:accumulate;stop-color:#000000;stop-opacity:1"
         d="m 1405.5234,941.79688 c -5.2927,-10e-6 -10.2332,1.97171 -14.4238,5.38085 l 25.8359,-2.11328 c -3.4759,-2.09199 -7.3378,-3.26757 -11.4121,-3.26757 z m 24.7286,20.41992 -50.7344,4.15234 c -0.9143,3.58863 -1.416,7.42366 -1.416,11.41602 0,19.87657 9.2444,37.77024 27.4218,35.99024 21.7341,-2.1283 27.42,-16.11367 27.42,-35.99024 0,-5.57733 -0.9661,-10.85651 -2.6914,-15.56836 z"
         transform="scale(0.26458333)" />
    </g>
    <path
       id="path897"
       style="fill:#ffffff;fill-opacity:1;stroke:none;stroke-width:2.11667;stroke-linecap:round;stroke-linejoin:round;stroke-miterlimit:4;stroke-dasharray:none;stroke-opacity:1"
       d="m 338.33304,283.35628 a 67.73333,67.73333 0 0 0 -67.73334,67.73333 67.73333,67.73333 0 0 0 67.73334,67.73334 67.73333,67.73333 0 0 0 67.73333,-67.73334 67.73333,67.73333 0 0 0 -67.73333,-67.73333 z m 0,16.93334 a 50.799999,50.799999 0 0 1 50.79999,50.79999 50.799999,50.799999 0 0 1 -50.79999,50.8 50.799999,50.799999 0 0 1 -50.8,-50.8 50.799999,50.799999 0 0 1 50.8,-50.79999 z"
       inkscape:export-filename="C:\Repos\official github\Cyclops-VR\CyclopsVR\Assets\Graphics\Reticle.png"
       inkscape:export-xdpi="133.91"
       inkscape:export-ydpi="133.91" />
    <g
       id="g903"
       transform="matrix(-0.95885091,-0.28391008,-0.28391008,0.95885091,781.01396,234.35996)"
       inkscape:export-filename="C:\Repos\official github\Cyclops-VR\CyclopsVR\Assets\Graphics\Icon_Steps.png"
       inkscape:export-xdpi="133.91"
       inkscape:export-ydpi="133.91">
      <path
         id="path899"
         style="color:#000000;font-style:normal;font-variant:normal;font-weight:normal;font-stretch:normal;font-size:medium;line-height:normal;font-family:sans-serif;font-variant-ligatures:normal;font-variant-position:normal;font-variant-caps:normal;font-variant-numeric:normal;font-variant-alternates:normal;font-variant-east-asian:normal;font-feature-settings:normal;font-variation-settings:normal;text-indent:0;text-align:start;text-decoration:none;text-decoration-line:none;text-decoration-style:solid;text-decoration-color:#000000;letter-spacing:normal;word-spacing:normal;text-transform:none;writing-mode:lr-tb;direction:ltr;text-orientation:mixed;dominant-baseline:auto;baseline-shift:baseline;text-anchor:start;white-space:normal;shape-padding:0;shape-margin:0;inline-size:0;clip-rule:nonzero;display:inline;overflow:visible;visibility:visible;opacity:1;isolation:auto;mix-blend-mode:normal;color-interpolation:sRGB;color-interpolation-filters:linearRGB;solid-color:#000000;solid-opacity:1;vector-effect:none;fill:#ffffff;fill-opacity:1;fill-rule:nonzero;stroke:none;stroke-width:8.00001;stroke-linecap:round;stroke-linejoin:round;stroke-miterlimit:4;stroke-dasharray:none;stroke-dashoffset:0;stroke-opacity:1;color-rendering:auto;image-rendering:auto;shape-rendering:auto;text-rendering:auto;enable-background:accumulate;stop-color:#000000;stop-opacity:1"
         d="m 1402.8574,814.28516 c -18.9354,0 -34.791,26.08665 -34.791,69.48046 0,20.31701 3.8783,45.22153 7.0957,61.94336 0.182,0.94588 0.386,1.84596 0.5977,2.72461 l 54.3613,-4.44921 c 6.4984,-14.96322 14.7839,-27.00034 16.2008,-49.65084 1.0795,-17.25661 0.094,-47.13215 -4.0355,-60.10803 -6.235,-19.58993 -28.0384,-19.94035 -39.429,-19.94035 z m 15.4903,148.90625 -33.0411,2.70507 c 5.4683,4.6336 11.9916,5.53125 17.5508,5.53125 5.3525,0 10.6185,-2.93594 15.4903,-8.23632 z"
         transform="scale(0.26458333)"
         sodipodi:nodetypes="sssccsssccsc" />
      <path
         id="path901"
         style="color:#000000;font-style:normal;font-variant:normal;font-weight:normal;font-stretch:normal;font-size:medium;line-height:normal;font-family:sans-serif;font-variant-ligatures:normal;font-variant-position:normal;font-variant-caps:normal;font-variant-numeric:normal;font-variant-alternates:normal;font-variant-east-asian:normal;font-feature-settings:normal;font-variation-settings:normal;text-indent:0;text-align:start;text-decoration:none;text-decoration-line:none;text-decoration-style:solid;text-decoration-color:#000000;letter-spacing:normal;word-spacing:normal;text-transform:none;writing-mode:lr-tb;direction:ltr;text-orientation:mixed;dominant-baseline:auto;baseline-shift:baseline;text-anchor:start;white-space:normal;shape-padding:0;shape-margin:0;inline-size:0;clip-rule:nonzero;display:inline;overflow:visible;visibility:visible;opacity:1;isolation:auto;mix-blend-mode:normal;color-interpolation:sRGB;color-interpolation-filters:linearRGB;solid-color:#000000;solid-opacity:1;vector-effect:none;fill:#ffffff;fill-opacity:1;fill-rule:nonzero;stroke:none;stroke-width:9.59728;stroke-linecap:round;stroke-linejoin:round;stroke-miterlimit:4;stroke-dasharray:none;stroke-dashoffset:0;stroke-opacity:1;color-rendering:auto;image-rendering:auto;shape-rendering:auto;text-rendering:auto;enable-background:accumulate;stop-color:#000000;stop-opacity:1"
         d="m 1405.5234,941.79688 c -5.2927,-10e-6 -10.2332,1.97171 -14.4238,5.38085 l 25.8359,-2.11328 c -3.4759,-2.09199 -7.3378,-3.26757 -11.4121,-3.26757 z m 24.7286,20.41992 -50.7344,4.15234 c -0.9143,3.58863 -1.416,7.42366 -1.416,11.41602 0,19.87657 9.2444,37.77024 27.4218,35.99024 21.7341,-2.1283 27.42,-16.11367 27.42,-35.99024 0,-5.57733 -0.9661,-10.85651 -2.6914,-15.56836 z"
         transform="scale(0.26458333)" />
    </g>
  </g>
</svg>
